<?xml version="1.0" encoding="UTF-8" standalone="no"?>
<svg
   xmlns:dc="http://purl.org/dc/elements/1.1/"
   xmlns:cc="http://creativecommons.org/ns#"
   xmlns:rdf="http://www.w3.org/1999/02/22-rdf-syntax-ns#"
   xmlns:svg="http://www.w3.org/2000/svg"
   xmlns="http://www.w3.org/2000/svg"
   xmlns:sodipodi="http://sodipodi.sourceforge.net/DTD/sodipodi-0.dtd"
   xmlns:inkscape="http://www.inkscape.org/namespaces/inkscape"
   viewBox="0 0 82.218704 77.550003"
   width="82.218704pt"
   height="77.550003pt"
   version="1.1"
   id="svg28"
   sodipodi:docname="formaldehyde.svg"
   inkscape:version="0.92.5 (2060ec1f9f, 2020-04-08)">
  <metadata
     id="metadata32">
    <rdf:RDF>
      <cc:Work
         rdf:about="">
        <dc:format>image/svg+xml</dc:format>
        <dc:type
           rdf:resource="http://purl.org/dc/dcmitype/StillImage" />
        <dc:title>Structural formula of formaldehyde.eps</dc:title>
      </cc:Work>
    </rdf:RDF>
  </metadata>
  <sodipodi:namedview
     pagecolor="#ffffff"
     bordercolor="#666666"
     borderopacity="1"
     objecttolerance="10"
     gridtolerance="10"
     guidetolerance="10"
     inkscape:pageopacity="0"
     inkscape:pageshadow="2"
     inkscape:window-width="1145"
     inkscape:window-height="1414"
     id="namedview30"
     showgrid="false"
     fit-margin-top="0"
     fit-margin-left="0"
     fit-margin-right="0"
     fit-margin-bottom="0"
     inkscape:zoom="2.0823529"
     inkscape:cx="-38.022676"
     inkscape:cy="53.800002"
     inkscape:window-x="1146"
     inkscape:window-y="0"
     inkscape:window-maximized="0"
     inkscape:current-layer="Hintergrund" />
  <title
     id="title2">Structural formula of formaldehyde.eps</title>
  <defs
     id="defs7">
    <clipPath
       id="Clip0">
      <path
         d="M 0,0 H 82.2187 V 77.55 H 0 Z"
         id="path4"
         inkscape:connector-curvature="0" />
    </clipPath>
  </defs>
  <g
     inkscape:label="Hintergrund"
     inkscape:groupmode="layer"
     id="Hintergrund"
     transform="translate(-4.68438,-5.3)">
    <g
       style="clip-rule:evenodd;fill:none;stroke:none"
       clip-path="url(#Clip0)"
       transform="translate(4.68438,5.3)"
       id="Gruppe2">
      <g
         style="fill:none;stroke:none"
         transform="translate(0,39.7)"
         id="Gruppe1">
        <path
           style="fill:#000000;fill-rule:nonzero;stroke:none"
           d="M 11.2344,9.96875 V 18 h 2.2344 V 0 H 11.2344 V 8 H 2.23438 V 0 H 0 V 18 H 2.23438 V 9.96875 Z"
           transform="translate(0,19.85)"
           id="path9"
           inkscape:connector-curvature="0" />
        <path
           style="fill:#000000;fill-rule:nonzero;stroke:none"
           d="M 14.7344,5.64062 C 14.0469,1.875 11.8438,0 8,0 5.64062,0 3.75,0.75 2.45312,2.1875 0.875,3.875 0,6.3125 0,9.07812 0,11.8906 0.890625,14.3125 2.53125,15.9688 3.89062,17.3594 5.625,18 7.90625,18 12.1719,18 14.5781,15.7188 15.0938,11.1875 H 12.7969 C 12.6094,12.3594 12.3594,13.1562 12,13.8438 11.2812,15.25 9.79688,16.0469 7.92188,16.0469 c -3.48438,0 -5.6875,-2.7188 -5.6875,-6.9844 0,-4.39062 2.09374,-7.09375 5.5,-7.09375 1.42187,0 2.73442,0.40625 3.45312,1.09375 0.6563,0.57812 1.0156,1.28125 1.2656,2.57812 z"
           transform="translate(33.5063)"
           id="path11"
           inkscape:connector-curvature="0" />
      </g>
      <path
         style="fill:#000000;fill-rule:nonzero;stroke:none"
         d="M 14.9,0 15.75,1.45 0.85,10.05 0,8.6 Z"
         transform="translate(16.4656,52.85)"
         id="path14"
         inkscape:connector-curvature="0" />
      <path
         style="fill:#000000;fill-rule:nonzero;stroke:none"
         d="M 11.2344,9.96875 V 18 h 2.2344 V 0 H 11.2344 V 8 H 2.23438 V 0 H 0 V 18 H 2.23438 V 9.96875 Z"
         transform="translate(68.75,59.55)"
         id="path16"
         inkscape:connector-curvature="0" />
      <path
         style="fill:#000000;fill-rule:nonzero;stroke:none"
         d="M 15.2,8.3 14.35,9.75 0,1.45 0.85,0 Z"
         transform="translate(50.4156,53.15)"
         id="path18"
         inkscape:connector-curvature="0" />
      <path
         style="fill:#000000;fill-rule:nonzero;stroke:none"
         d="M 8.42188,0 C 3.40625,0 0,3.67188 0,9.01562 0,14.375 3.375,18 8.45312,18 10.5781,18 12.4531,17.3594 13.875,16.1562 15.7656,14.5938 16.8906,11.9375 16.8906,9.15625 16.8906,3.64062 13.5625,0 8.42188,0 Z m 0,1.96875 c 3.79692,0 6.23432,2.79687 6.23432,7.14063 0,4.12502 -2.5156,6.93752 -6.20308,6.93752 -3.75,0 -6.21874,-2.8125 -6.21874,-7.03128 0,-4.21874 2.46874,-7.04687 6.1875,-7.04687 z"
         transform="translate(32.6219)"
         id="path20"
         inkscape:connector-curvature="0" />
      <path
         style="fill:#000000;fill-rule:nonzero;stroke:none"
         d="M 0,17.45 H 1.7 V 0 H 0 Z"
         transform="translate(37.2156,20.5)"
         id="path22"
         inkscape:connector-curvature="0" />
      <path
         style="fill:#000000;fill-rule:nonzero;stroke:none"
         d="M 0,17.45 H 1.7 V 0 H 0 Z"
         transform="translate(43.1656,20.5)"
         id="path24"
         inkscape:connector-curvature="0" />
    </g>
  </g>
</svg>
